{"asset":{"version":"2.0","generator":"BigHero gen_gltf_demo.py"},"scene":0,"scenes":[{"nodes":[0]}],"nodes":[{"mesh":0,"name":"TransparentEmissiveDemo"}],"meshes":[{"name":"demo","primitives":[{"attributes":{"POSITION":0,"NORMAL":1,"TEXCOORD_0":2},"indices":3,"material":0},{"attributes":{"POSITION":4,"NORMAL":5,"TEXCOORD_0":6},"indices":7,"material":1},{"attributes":{"POSITION":8,"NORMAL":9,"TEXCOORD_0":10},"indices":11,"material":2},{"attributes":{"POSITION":12,"NORMAL":13,"TEXCOORD_0":14},"indices":15,"material":3}]}],"materials":[{"name":"CheckerMetal","pbrMetallicRoughness":{"baseColorFactor":[1.0,1.0,1.0,1.0],"metallicFactor":1.0,"roughnessFactor":0.2,"baseColorTexture":{"index":0},"metallicRoughnessTexture":{"index":2}},"normalTexture":{"index":1}},{"name":"EmissiveCopper","pbrMetallicRoughness":{"baseColorFactor":[0.85,0.45,0.25,1.0],"metallicFactor":1.0,"roughnessFactor":0.35,"baseColorTexture":{"index":0}},"normalTexture":{"index":1},"emissiveFactor":[2.5,0.9,0.3],"emissiveTexture":{"index":3}},{"name":"Glass","pbrMetallicRoughness":{"baseColorFactor":[0.55,0.75,0.95,0.35],"metallicFactor":0.0,"roughnessFactor":0.1},"alphaMode":"BLEND"},{"name":"Grate","pbrMetallicRoughness":{"baseColorFactor":[1.0,1.0,1.0,1.0],"metallicFactor":0.8,"roughnessFactor":0.5,"baseColorTexture":{"index":4}},"alphaMode":"MASK","alphaCutoff":0.35}],"textures":[{"source":0,"sampler":0},{"source":1,"sampler":0},{"source":2,"sampler":0},{"source":3,"sampler":0},{"source":4,"sampler":0}],"images":[{"uri":"basecolor.png"},{"uri":"normal.png"},{"uri":"mr.png"},{"uri":"emissive.png"},{"uri":"mask.png"}],"samplers":[{"magFilter":9729,"minFilter":9987,"wrapS":10497,"wrapT":10497}],"buffers":[{"byteLength":3648,"uri":"data:application/octet-stream;base64,"}],"bufferViews":[{"buffer":0,"byteOffset":0,"byteLength":288,"target":34962},{"buffer":0,"byteOffset":288,"byteLength":288,"target":34962},{"buffer":0,"byteOffset":576,"byteLength":192,"target":34962},{"buffer":0,"byteOffset":768,"byteLength":144,"target":34963},{"buffer":0,"byteOffset":912,"byteLength":288,"target":34962},{"buffer":0,"byteOffset":1200,"byteLength":288,"target":34962},{"buffer":0,"byteOffset":1488,"byteLength":192,"target":34962},{"buffer":0,"byteOffset":1680,"byteLength":144,"target":34963},{"buffer":0,"byteOffset":1824,"byteLength":288,"target":34962},{"buffer":0,"byteOffset":2112,"byteLength":288,"target":34962},{"buffer":0,"byteOffset":2400,"byteLength":192,"target":34962},{"buffer":0,"byteOffset":2592,"byteLength":144,"target":34963},{"buffer":0,"byteOffset":2736,"byteLength":288,"target":34962},{"buffer":0,"byteOffset":3024,"byteLength":288,"target":34962},{"buffer":0,"byteOffset":3312,"byteLength":192,"target":34962},{"buffer":0,"byteOffset":3504,"byteLength":144,"target":34963}],"accessors":[{"bufferView":0,"componentType":5126,"count":24,"type":"VEC3","min":[-2.3,-0.5,-0.5],"max":[-1.3,0.5,0.5]},{"bufferView":1,"componentType":5126,"count":24,"type":"VEC3","min":null,"max":null},{"bufferView":2,"componentType":5126,"count":24,"type":"VEC2","min":null,"max":null},{"bufferView":3,"componentType":5125,"count":36,"type":"SCALAR","min":null,"max":null},{"bufferView":4,"componentType":5126,"count":24,"type":"VEC3","min":[-1.1,-0.5,-0.5],"max":[-0.09999999999999998,0.5,0.5]},{"bufferView":5,"componentType":5126,"count":24,"type":"VEC3","min":null,"max":null},{"bufferView":6,"componentType":5126,"count":24,"type":"VEC2","min":null,"max":null},{"bufferView":7,"componentType":5125,"count":36,"type":"SCALAR","min":null,"max":null},{"bufferView":8,"componentType":5126,"count":24,"type":"VEC3","min":[0.09999999999999998,-0.5,-0.5],"max":[1.1,0.5,0.5]},{"bufferView":9,"componentType":5126,"count":24,"type":"VEC3","min":null,"max":null},{"bufferView":10,"componentType":5126,"count":24,"type":"VEC2","min":null,"max":null},{"bufferView":11,"componentType":5125,"count":36,"type":"SCALAR","min":null,"max":null},{"bufferView":12,"componentType":5126,"count":24,"type":"VEC3","min":[1.3,-0.5,-0.5],"max":[2.3,0.5,0.5]},{"bufferView":13,"componentType":5126,"count":24,"type":"VEC3","min":null,"max":null},{"bufferView":14,"componentType":5126,"count":24,"type":"VEC2","min":null,"max":null},{"bufferView":15,"componentType":5125,"count":36,"type":"SCALAR","min":null,"max":null}]}